<?xml version="1.0" encoding="UTF-8" standalone="no"?>
<svg
   xmlns:dc="http://purl.org/dc/elements/1.1/"
   xmlns:cc="http://creativecommons.org/ns#"
   xmlns:rdf="http://www.w3.org/1999/02/22-rdf-syntax-ns#"
   xmlns:svg="http://www.w3.org/2000/svg"
   xmlns="http://www.w3.org/2000/svg"
   viewBox="0 0 4625 3671"
   height="3671"
   width="4625"
   id="svg64"
   version="1.1">
  <metadata
     id="metadata70">
    <rdf:RDF>
      <cc:Work
         rdf:about="">
        <dc:format>image/svg+xml</dc:format>
        <dc:type
           rdf:resource="http://purl.org/dc/dcmitype/StillImage" />
        <dc:title></dc:title>
      </cc:Work>
    </rdf:RDF>
  </metadata>
  <defs
     id="defs68" />
  <path
     id="path3718"
     d="m 933.3846,2307.6644 -383.04728,-242.3361 129.76704,-214.1938 270.47828,37.523 153.21896,145.4017 z"
     style="fill:none;stroke:#000000;stroke-width:1px;stroke-linecap:butt;stroke-linejoin:miter;stroke-opacity:1" />
  <path
     id="path3720"
     d="m 880.22702,1741.6925 132.89398,-189.1785 103.1882,76.6095 159.4728,136.0208 -79.7364,120.3863 -231.39183,-20.3249 z"
     style="fill:none;stroke:#000000;stroke-width:1px;stroke-linecap:butt;stroke-linejoin:miter;stroke-opacity:1" />
  <path
     id="path3722"
     d="m 1181.9745,2015.2977 129.767,-223.5746 106.3152,67.2287 -56.2845,150.092 -67.2287,101.6248 z"
     style="fill:none;stroke:#000000;stroke-width:1px;stroke-linecap:butt;stroke-linejoin:miter;stroke-opacity:1" />
  <path
     id="path3724"
     d="m 1560.3314,1990.2823 -68.7922,-87.5536 -73.4825,-43.7769 -56.2845,150.092 -67.2287,101.6248 93.8075,76.6095 68.7921,-98.4979 z"
     style="fill:none;stroke:#000000;stroke-width:1px;stroke-linecap:butt;stroke-linejoin:miter;stroke-opacity:1" />
  <path
     id="path3726"
     d="m 1640.0677,2093.4706 -79.7363,-103.1883 -103.1883,98.4979 -68.7921,98.4979 95.3709,85.9902 56.2845,-87.5537 z"
     style="fill:none;stroke:#000000;stroke-width:1px;stroke-linecap:butt;stroke-linejoin:miter;stroke-opacity:1" />
  <path
     id="path3728"
     d="m 1713.5503,2185.7146 -73.4826,-92.244 -100.0613,92.244 -56.2845,87.5537 100.0613,87.5537 128.2036,-162.5997 z"
     style="fill:none;stroke:#000000;stroke-width:1px;stroke-linecap:butt;stroke-linejoin:miter;stroke-opacity:1" />
  <path
     id="path3730"
     d="m 1419.6201,1635.3773 -107.8786,156.3458 179.7977,111.0056 90.6806,-79.7364 z"
     style="fill:none;stroke:#000000;stroke-width:1px;stroke-linecap:butt;stroke-linejoin:miter;stroke-opacity:1" />
  <path
     id="path3732"
     d="m 1013.121,1552.514 92.244,-126.6401 45.3403,-181.3612 284.5494,339.2705 -53.1576,17.198 -106.3151,164.1631 -159.4728,-136.0208 z"
     style="fill:none;stroke:#000000;stroke-width:1px;stroke-linecap:butt;stroke-linejoin:miter;stroke-opacity:1" />
  <path
     id="path3734"
     d="m 1150.7053,1244.5127 90.6806,-70.3556 175.1073,-109.4421 453.4029,-265.78788 140.7113,272.04178 87.5536,165.7265 79.7364,128.2036 -148.5285,57.848 -431.5145,340.8339 -162.5997,-179.7977 z"
     style="fill:none;stroke:#000000;stroke-width:1px;stroke-linecap:butt;stroke-linejoin:miter;stroke-opacity:1" />
  <path
     id="path3736"
     d="m 2248.652,1389.182 53.0655,70.7541 44.2213,42.0102 130.4528,72.9651 278.594,305.1268 101.709,-97.2868 203.4179,-168.0408 203.4178,-161.4077 -459.9013,-561.61025 z"
     style="fill:none;stroke:#000000;stroke-width:1px;stroke-linecap:butt;stroke-linejoin:miter;stroke-opacity:1" />
  <path
     id="path3738"
     d="m 2980.5142,732.49605 -176.8852,159.1966 459.9013,561.61025 201.2069,-150.3524 z"
     style="fill:none;stroke:#000000;stroke-width:1px;stroke-linecap:butt;stroke-linejoin:miter;stroke-opacity:1" />
  <path
     id="path3740"
     d="m 3725.6427,1614.7106 -260.9055,-311.7601 -201.2069,150.3524 -300.7046,241.006 -75.1762,61.9097 -132.6639,123.8196 99.4979,126.0307 h 13.2664 l 68.543,57.4876 59.6987,37.5881 103.92,50.8545 446.6349,-322.8153 z"
     style="fill:none;stroke:#000000;stroke-width:1px;stroke-linecap:butt;stroke-linejoin:miter;stroke-opacity:1" />
  <path
     id="path3742"
     d="m 3312.1737,2346.5727 176.8852,-37.5881 221.1064,-28.7438 117.1863,-24.3217 -280.8051,-426.7353 -283.0162,205.6289 -163.6187,117.1864 z"
     style="fill:none;stroke:#000000;stroke-width:1px;stroke-linecap:butt;stroke-linejoin:miter;stroke-opacity:1" />
  <path
     id="path3744"
     d="m 3789.7636,1610.2884 -179.0962,221.1064 267.5387,413.469 397.9915,-72.9651 210.0511,-53.0656 -400.2026,-457.6902 -103.92,172.463 z"
     style="fill:none;stroke:#000000;stroke-width:1px;stroke-linecap:butt;stroke-linejoin:miter;stroke-opacity:1" />
</svg>
